Coordinates
version=1
nRows=22
nColumns=24
inDegrees=yes

Units are S.I. units (second, meters, Newtons, ...)
Angles are in degrees.

endheader
time	pelvis_tilt	pelvis_list	pelvis_rotation	pelvis_tx	pelvis_ty	pelvis_tz	hip_flexion_r	hip_adduction_r	hip_rotation_r	knee_angle_r	ankle_angle_r	subtalar_angle_r	mtp_angle_r	hip_flexion_l	hip_adduction_l	hip_rotation_l	knee_angle_l	ankle_angle_l	subtalar_angle_l	mtp_angle_l	lumbar_extension	lumbar_bending	lumbar_rotation
      3.49500000	     -9.26245212	      8.20544558	      0.98928736	     -0.77005108	     -0.01682667	      0.70230413	     40.40698708	    -12.54306750	     -1.51181365	    -67.28691574	    -16.25290612	    -16.22427385	     25.13713015	      5.81505374	     12.70652086	     17.86046924	    -15.10071055	     14.97180239	    -15.24594157	    -32.49959538	      7.01933351	     -9.40477691	     -6.69330054
      3.50000000	     -9.17077749	      8.08945303	      1.09842539	     -0.76338823	     -0.01679102	      0.70236052	     40.78607818	    -12.34281347	     -1.42355453	    -66.36376388	    -15.88338731	    -16.27703401	     24.44500426	      5.05446384	     12.50271814	     18.04516476	    -14.68672475	     15.09973900	    -15.07268437	    -32.56438033	      6.82773228	     -9.26898017	     -6.92542423
      3.50500000	     -9.19426058	      7.99317436	      1.17914871	     -0.75667194	     -0.01696370	      0.70236407	     41.27807868	    -12.14655832	     -1.26624522	    -65.37285822	    -15.58576746	    -16.25706525	     24.19612863	      4.42489175	     12.31993479	     18.18323779	    -14.28142239	     15.21856246	    -14.89838152	    -32.51844127	      6.78805514	     -9.12856632	     -7.07765127
      3.51000000	     -9.00160604	      7.90301879	      1.27374015	     -0.75006511	     -0.01692267	      0.70244657	     41.48793720	    -11.97182713	     -1.14138386	    -64.32130937	    -15.14527874	    -16.10158272	     23.52902513	      3.58574604	     12.12318288	     18.20892762	    -13.89671830	     15.34578728	    -14.56988704	    -32.36656862	      6.47513064	     -9.00844263	     -7.38241364
      3.51500000	     -9.02669187	      7.80871814	      1.34619245	     -0.74335057	     -0.01715584	      0.70251134	     41.90693129	    -11.76883350	     -0.95387971	    -63.18736199	    -14.80270638	    -15.92672758	     23.32100198	      2.97741418	     11.92509516	     18.24859559	    -13.50700765	     15.43976171	    -14.32478120	    -32.24362341	      6.43403692	     -8.86889053	     -7.53652989
      3.52000000	     -8.91796862	      7.72546403	      1.42360227	     -0.73671672	     -0.01727355	      0.70262630	     42.13316314	    -11.58361511	     -0.75744399	    -61.98048146	    -14.34952981	    -15.60311255	     23.06487855	      2.25619524	     11.72387699	     18.18211208	    -13.15967934	     15.56035885	    -13.91693660	    -32.04414222	      6.22343525	     -8.74749921	     -7.76079775
      3.52500000	     -8.84394282	      7.65235770	      1.49096837	     -0.73007746	     -0.01746049	      0.70277433	     42.36585603	    -11.40037145	     -0.53927067	    -60.70739263	    -13.93357712	    -15.27986820	     22.81287887	      1.58569587	     11.52894180	     18.06530065	    -12.82704446	     15.65994609	    -13.49020826	    -31.81280498	      6.05413558	     -8.63529376	     -7.96106230
      3.53000000	     -8.76893216	      7.59261776	      1.55887920	     -0.72345945	     -0.01768592	      0.70290422	     42.56216901	    -11.23907912	     -0.30895009	    -59.37015846	    -13.50721126	    -14.91318141	     22.57921901	      0.93258537	     11.34521394	     17.89897518	    -12.52209578	     15.76166423	    -12.98902607	    -31.53417661	      5.87777867	     -8.52524538	     -8.16822128
      3.53500000	     -8.70640207	      7.52912279	      1.62547598	     -0.71682039	     -0.01794386	      0.70306735	     42.72646080	    -11.07800531	     -0.07745766	    -57.95974288	    -13.09487252	    -14.53143856	     22.35245556	      0.31035123	     11.15413668	     17.69039163	    -12.24776343	     15.86273371	    -12.43661631	    -31.20930267	      5.72055578	     -8.41988994	     -8.36642773
      3.54000000	     -8.57169946	      7.48703040	      1.67816081	     -0.71027593	     -0.01817383	      0.70333332	     42.78695199	    -10.92648249	      0.15070026	    -56.50363841	    -12.68545580	    -14.27211889	     21.73995566	     -0.33320236	     10.97049039	     17.24525448	    -12.04662145	     15.88858844	    -11.63981972	    -30.32336846	      5.46388029	     -8.33664851	     -8.60374047
      3.54500000	     -8.56261842	      7.43412408	      1.76578535	     -0.70359866	     -0.01856134	      0.70341949	     42.92067248	    -10.81359444	      0.38218604	    -54.96432699	    -12.23484694	    -13.81247060	     21.62507228	     -0.87164370	     10.79672110	     17.05747686	    -11.83217271	     15.91651479	    -11.03025271	    -29.73138207	      5.36724913	     -8.22678366	     -8.78269014
      3.55000000	     -8.55094009	      7.26491815	      1.75208327	     -0.69688216	     -0.01892544	      0.70384959	     43.00420073	    -10.48779627	      0.60416197	    -53.34905185	    -11.95155048	    -13.70607988	     20.73747284	     -1.35095698	     10.46058720	     16.42998602	    -11.65979727	     15.55737443	    -10.14717546	    -27.27567325	      5.28647480	     -8.00707138	     -8.88960213
      3.55500000	     -8.54298560	      7.29033621	      1.90707998	     -0.69022334	     -0.01937081	      0.70374636	     43.05860482	    -10.54594331	      0.79116738	    -51.69537130	    -11.46802218	    -13.19131576	     20.89593462	     -1.85798670	     10.39207560	     16.30205915	    -11.51176662	     15.51418453	     -9.58744240	    -26.81714863	      5.17743592	     -7.97113936	     -9.15150000
      3.56000000	     -8.61232413	      7.15421658	      1.97999234	     -0.68345854	     -0.01988488	      0.70398918	     43.13905997	    -10.35771600	      0.94687093	    -49.98926468	    -11.03720616	    -12.85132800	     20.03570337	     -2.19843253	     10.09998183	     15.53270012	    -11.39052438	     14.50685492	     -8.72477992	    -22.39171856	      5.18339596	     -7.78389234	     -9.34189890
      3.56500000	     -8.56174810	      7.08137123	      2.06713989	     -0.67669098	     -0.02025896	      0.70398335	     43.03621692	    -10.29127721	      1.09152516	    -48.17369832	    -10.72417110	    -12.59552098	     20.14699175	     -2.71674935	      9.92103752	     15.31348833	    -11.30518131	     14.58781181	     -8.06112191	    -22.15763919	      5.04883730	     -7.62538631	     -9.53900145
      3.57000000	     -8.54650898	      6.97907730	      2.16116320	     -0.66991142	     -0.02066185	      0.70402913	     42.93001242	    -10.19893212	      1.21477682	    -46.32223974	    -10.43651316	    -12.35014146	     19.94871563	     -3.14447007	      9.70510757	     14.92119062	    -11.30046956	     14.67535862	     -7.22051336	    -21.67176515	      4.95485870	     -7.44618913	     -9.77280744
      3.57500000	     -8.56087439	      6.86977813	      2.27626404	     -0.66304130	     -0.02112235	      0.70400732	     42.80819319	    -10.12863966	      1.30514947	    -44.44219411	    -10.06407187	    -12.03309897	     19.64453661	     -3.52842955	      9.48753167	     14.54495001	    -11.32404996	     14.69315465	     -6.41010046	    -21.00144210	      4.90550370	     -7.24880333	     -9.99195636
      3.58000000	     -8.67667706	      6.73435278	      2.35454391	     -0.65603754	     -0.02175961	      0.70415691	     42.77284805	     -9.98667503	      1.42839842	    -42.59035520	     -9.51389706	    -11.60427315	     18.58723939	     -3.78051140	      9.21696147	     13.84711582	    -11.27812870	     13.60173012	     -5.70562669	    -16.68344784	      4.99848932	     -7.03420852	    -10.10885141
      3.58500000	     -8.68469739	      6.60294229	      2.53593083	     -0.64906340	     -0.02220687	      0.70395587	     42.54527074	     -9.97273195	      1.42845904	    -40.63134110	     -9.23685814	    -11.33188427	     18.76890178	     -4.14830329	      8.99297909	     13.61432547	    -11.36934523	     13.67780898	     -5.00040858	    -16.43180899	      4.94796965	     -6.80177515	    -10.37718493
      3.59000000	     -8.70123662	      6.40388724	      2.61558495	     -0.64192012	     -0.02267355	      0.70396733	     42.29603514	     -9.80122136	      1.50044948	    -38.66752803	     -8.99832435	    -11.13318668	     18.60184873	     -4.48992724	      8.68036308	     13.14365196	    -11.46610732	     13.65919956	     -4.14870635	    -15.62335054	      4.94929714	     -6.48775123	    -10.50674001
      3.59500000	     -8.77778525	      6.31399902	      2.86807969	     -0.63481798	     -0.02325387	      0.70362873	     42.09724693	     -9.88404578	      1.48125290	    -36.78040815	     -8.56255851	    -10.59884481	     18.59528048	     -4.75065351	      8.51382953	     12.96857438	    -11.63194279	     13.60773493	     -3.50700807	    -15.16067884	      4.98599370	     -6.29853239	    -10.81564799
      3.60000000	     -8.79474360	      6.11557353	      3.06360449	     -0.62759592	     -0.02372732	      0.70342672	     41.78740101	     -9.80549351	      1.49908087	    -34.89156484	     -8.26198143	    -10.16123375	     18.44437709	     -5.05630456	      8.20849647	     12.63910189	    -11.81338635	     13.55342834	     -2.67861431	    -14.37149808	      4.98522337	     -5.98149601	    -11.05087098
